<svg width="174" height="40" viewBox="0 0 174 40" fill="none" xmlns="http://www.w3.org/2000/svg">
<path d="M16.043 27.3064C13.8667 26.498 11.6281 26.3737 9.57614 26.9333C8.14596 27.3064 6.77796 28.0526 5.53432 28.9853L4.66376 29.7315L4.41504 29.9802L4.97467 30.4777C5.03685 30.4777 5.03686 30.5399 5.09904 30.602C5.22341 30.7264 5.34778 30.7886 5.53432 30.9129L5.9074 31.1617L6.28049 30.8508C6.34268 30.7886 6.46704 30.6642 6.5914 30.602C7.71068 29.6693 8.95431 29.0475 10.2601 28.7366C11.939 28.3013 13.7423 28.3635 15.5456 29.0475C17.0379 29.6071 20.0849 30.2911 23.7536 28.7366L23.878 28.6744L24.0645 28.4879C24.0645 28.4257 24.1267 28.4257 24.1889 28.3635C24.4998 27.9904 24.8107 27.6173 25.0594 27.182L26.303 25.2544L24.3132 26.3737C21.3907 27.9904 18.7169 28.3013 16.043 27.3064Z" fill="#55B02E"/>
<path d="M7.52364 20.5906C9.20255 20.1553 11.0058 20.2175 12.8091 20.9015C14.7989 21.6477 19.8978 22.7048 25.6186 17.5437L26.5513 16.611L26.6135 16.5488L26.8622 16.3001L26.7378 15.9891C26.6756 15.7404 26.5513 15.4295 26.4269 15.1186L26.116 14.248L25.4942 14.8699C25.432 14.9942 25.3076 15.0564 25.1833 15.1808C22.4473 17.979 18.2189 20.8393 13.3687 19.0982C11.1924 18.2899 8.95382 18.1655 6.90182 18.7251C4.91201 19.2848 3.17091 20.3419 1.55418 21.8342V21.7721L0.621456 22.767C0.621456 22.8291 0.559286 22.8292 0.497104 22.8913L0.310547 23.0779L0.372732 23.3266C0.434914 23.6375 0.559274 23.9484 0.621456 24.2593L0.994551 25.2542L1.61637 24.4459C1.67855 24.3215 1.80291 24.2593 1.86509 24.135C3.17091 22.9535 4.97419 21.2746 7.52364 20.5906Z" fill="#55B02E"/>
<path d="M1.49238 19.4715C2.92256 17.9792 4.53928 17.0464 6.28037 16.549C7.95928 16.1137 9.76255 16.1759 11.5658 16.8599C17.1622 18.9119 22.0124 15.5541 24.1266 13.7508L24.9349 12.9424L25.2458 12.6937L24.9971 12.3206C24.8106 12.1341 24.6862 11.8854 24.4997 11.6366L24.1266 11.1392L23.6913 11.5744C23.6291 11.6366 23.5047 11.761 23.4426 11.8232C20.8309 14.3104 16.7891 16.8599 12.1876 15.1188C10.0113 14.3104 7.77273 14.1861 5.72074 14.7457C4.41492 15.1188 3.17128 15.7406 1.92764 16.549L0.621818 17.6061C0.497455 17.7304 0.435273 17.7926 0.310909 17.917L0.186557 18.0413V18.2279C0.124375 18.6632 0.124367 19.0984 0.0621856 19.4715L0 21.0261L1.0571 19.9068C1.18146 19.7824 1.30583 19.5959 1.49238 19.4715Z" fill="#55B02E"/>
<path d="M17.8466 31.5349L17.7222 31.908L17.8466 31.5349C17.66 31.4727 17.5357 31.4105 17.3491 31.3483C15.1728 30.54 12.9342 30.4156 10.8822 30.9753C10.4469 31.0996 10.0117 31.224 9.57639 31.4105L8.08401 32.0945L7.71094 32.2811L8.95457 32.7163C9.32766 32.8407 9.70075 32.9651 10.0738 33.0894L10.2604 33.1516L10.4469 33.0894C10.6335 33.0273 10.82 32.9029 11.0066 32.9029C11.1309 32.9029 11.2553 32.8407 11.3797 32.7785C12.872 32.4054 14.4887 32.4054 16.2298 32.9651C16.4164 33.0272 16.5408 33.0894 16.7273 33.1516L17.0382 33.276L17.2247 33.2138C17.66 33.0894 18.1575 32.9651 18.5306 32.7785L20.2717 32.1567L18.4684 31.7214C18.2818 31.6592 18.0331 31.5971 17.8466 31.5349Z" fill="#55B02E"/>
<path d="M27.3597 18.6631L26.427 19.5958C26.3027 19.7202 26.1783 19.8445 26.0539 19.9689C23.5045 22.394 19.4005 25.0056 14.799 23.2645C12.6227 22.4562 10.3841 22.3318 8.33213 22.8915C6.40449 23.4511 4.66338 24.446 3.10884 25.9384L2.30048 26.8089L2.05176 27.1198L2.30048 27.4929C2.48703 27.7416 2.6114 27.9282 2.73576 28.1769L3.10884 28.7365L3.54412 28.1769C3.6063 28.1147 3.73066 27.9904 3.79284 27.9282C5.2852 26.3114 6.90193 25.3165 8.76739 24.8191C10.4463 24.3838 12.2496 24.446 14.0528 25.13C15.6074 25.6896 17.2241 25.8762 18.8408 25.6896C21.7012 25.3787 24.5616 23.762 26.6758 21.9587C26.8001 21.8344 26.9245 21.7722 27.0488 21.6478L27.2354 21.4613V21.2747C27.2354 20.9016 27.2976 20.4664 27.2976 20.0933L27.3597 18.6631Z" fill="#55B02E"/>
<path d="M3.73045 12.9423L3.54391 12.5692L3.73045 12.9423C4.10354 12.7557 4.53883 12.6313 4.91192 12.507C6.59083 12.0717 8.3941 12.1339 10.1974 12.8179C11.3788 13.2532 12.5603 13.4397 13.8661 13.4397C16.4777 13.4397 19.0894 12.507 21.5145 10.7037L22.4472 9.95752L22.7581 9.70879L22.1985 9.27351C22.0119 9.08697 21.7632 8.90043 21.5145 8.77607L21.1414 8.52734L20.8305 8.77607C20.7061 8.83825 20.6439 8.96261 20.5195 9.02479C17.2239 11.5121 13.9283 12.1961 10.8192 11.0146C8.58065 10.2063 6.34209 10.0197 4.10355 10.7037C3.917 10.7659 3.73045 10.8281 3.48173 10.8902L3.35738 10.9524L3.17082 11.139C3.17082 11.2012 3.10865 11.2012 3.04647 11.2633C2.79774 11.6364 2.48682 11.9473 2.23809 12.3204L1.05664 14.1237L2.98428 13.1288C3.29519 13.1288 3.54391 13.0044 3.73045 12.9423Z" fill="#55B02E"/>
<path d="M8.82967 8.71393L9.01621 8.77611C9.82457 9.08702 11.0682 9.39793 12.6228 9.39793C14.2395 9.39793 15.794 9.02484 17.3486 8.40302L19.2762 7.47029L17.9704 7.03503C17.5973 6.91067 17.2242 6.7863 16.7889 6.72412H16.6024L16.4159 6.78629C16.2293 6.84847 16.0428 6.97285 15.8562 7.03503C13.9908 7.71903 12.1253 7.84339 10.322 7.34594C10.1355 7.28376 9.94894 7.22156 9.7624 7.15938L9.57586 7.0972L9.3893 7.15938C9.01621 7.28375 8.64313 7.40812 8.27004 7.59466L6.83984 8.21648L8.33222 8.65174C8.45659 8.58956 8.64312 8.65175 8.82967 8.71393Z" fill="#55B02E"/>
<path d="M40.4761 30.5V18.992H37.7601V16.36H41.4561L40.4761 17.256V15.1C40.4761 13.3453 40.9148 12.02 41.7921 11.124C42.6881 10.228 43.9855 9.78 45.6841 9.78C46.0948 9.78 46.5241 9.808 46.9721 9.864C47.4388 9.92 47.8401 10.0227 48.1761 10.172V12.916C47.9335 12.8227 47.6441 12.748 47.3081 12.692C46.9721 12.636 46.6455 12.608 46.3281 12.608C45.6001 12.608 45.0215 12.8227 44.5921 13.252C44.1628 13.6627 43.9481 14.3347 43.9481 15.268V16.976L43.4441 16.36H53.2721V30.5H49.7721V18.992H43.9761V30.5H40.4761ZM49.5761 13.7V10.284H53.4681V13.7H49.5761ZM57.0788 30.5V19.888C57.0788 19.3093 57.0601 18.7213 57.0228 18.124C56.9855 17.5267 56.9295 16.9387 56.8548 16.36H60.2428L60.5228 19.16H60.1868C60.6348 18.1707 61.2975 17.4147 62.1748 16.892C63.0521 16.3507 64.0695 16.08 65.2268 16.08C66.8881 16.08 68.1388 16.5467 68.9788 17.48C69.8188 18.4133 70.2388 19.8693 70.2388 21.848V30.5H66.7388V22.016C66.7388 20.8773 66.5148 20.0653 66.0668 19.58C65.6375 19.076 64.9841 18.824 64.1068 18.824C63.0241 18.824 62.1655 19.16 61.5308 19.832C60.8961 20.504 60.5788 21.4 60.5788 22.52V30.5H57.0788ZM79.4099 30.78C78.1779 30.78 77.0952 30.4907 76.1619 29.912C75.2286 29.3147 74.5006 28.4653 73.9779 27.364C73.4552 26.2627 73.1939 24.9467 73.1939 23.416C73.1939 21.8853 73.4552 20.5787 73.9779 19.496C74.5006 18.3947 75.2286 17.5547 76.1619 16.976C77.0952 16.3787 78.1779 16.08 79.4099 16.08C80.6046 16.08 81.6499 16.3787 82.5459 16.976C83.4606 17.5547 84.0672 18.3387 84.3659 19.328H84.0579L84.3659 16.36H87.7259C87.6699 16.9387 87.6139 17.5267 87.5579 18.124C87.5206 18.7213 87.5019 19.3093 87.5019 19.888V30.5H84.0299L84.0019 27.588H84.3379C84.0392 28.5587 83.4326 29.3333 82.5179 29.912C81.6032 30.4907 80.5672 30.78 79.4099 30.78ZM80.3899 28.092C81.4912 28.092 82.3779 27.7093 83.0499 26.944C83.7219 26.16 84.0579 24.984 84.0579 23.416C84.0579 21.848 83.7219 20.6813 83.0499 19.916C82.3779 19.1507 81.4912 18.768 80.3899 18.768C79.2886 18.768 78.4019 19.1507 77.7299 19.916C77.0579 20.6813 76.7219 21.848 76.7219 23.416C76.7219 24.984 77.0486 26.16 77.7019 26.944C78.3739 27.7093 79.2699 28.092 80.3899 28.092ZM91.3132 30.5V19.888C91.3132 19.3093 91.2945 18.7213 91.2572 18.124C91.2198 17.5267 91.1638 16.9387 91.0892 16.36H94.4772L94.7572 19.16H94.4212C94.8692 18.1707 95.5318 17.4147 96.4092 16.892C97.2865 16.3507 98.3038 16.08 99.4612 16.08C101.123 16.08 102.373 16.5467 103.213 17.48C104.053 18.4133 104.473 19.8693 104.473 21.848V30.5H100.973V22.016C100.973 20.8773 100.749 20.0653 100.301 19.58C99.8718 19.076 99.2185 18.824 98.3412 18.824C97.2585 18.824 96.3998 19.16 95.7652 19.832C95.1305 20.504 94.8132 21.4 94.8132 22.52V30.5H91.3132ZM114.68 30.78C113.224 30.78 111.946 30.4813 110.844 29.884C109.762 29.2867 108.922 28.4373 108.324 27.336C107.727 26.216 107.428 24.8907 107.428 23.36C107.428 21.8293 107.727 20.5227 108.324 19.44C108.94 18.3573 109.79 17.5267 110.872 16.948C111.955 16.3693 113.224 16.08 114.68 16.08C115.614 16.08 116.519 16.2293 117.396 16.528C118.292 16.808 119.02 17.2187 119.58 17.76L118.516 20.196C118.012 19.7293 117.443 19.384 116.808 19.16C116.192 18.9173 115.586 18.796 114.988 18.796C113.738 18.796 112.758 19.188 112.048 19.972C111.358 20.756 111.012 21.8947 111.012 23.388C111.012 24.8813 111.358 26.0293 112.048 26.832C112.758 27.6347 113.738 28.036 114.988 28.036C115.567 28.036 116.164 27.924 116.78 27.7C117.415 27.476 117.994 27.1307 118.516 26.664L119.58 29.072C119.002 29.6133 118.264 30.0333 117.368 30.332C116.491 30.6307 115.595 30.78 114.68 30.78ZM128.852 30.78C126.482 30.78 124.624 30.1267 123.28 28.82C121.936 27.5133 121.264 25.7213 121.264 23.444C121.264 21.9693 121.554 20.6813 122.132 19.58C122.711 18.4787 123.514 17.62 124.54 17.004C125.586 16.388 126.799 16.08 128.18 16.08C129.543 16.08 130.682 16.3693 131.596 16.948C132.511 17.5267 133.202 18.3387 133.668 19.384C134.154 20.4293 134.396 21.652 134.396 23.052V23.976H124.092V22.128H131.904L131.428 22.52C131.428 21.2133 131.148 20.2147 130.588 19.524C130.047 18.8333 129.254 18.488 128.208 18.488C127.051 18.488 126.155 18.8987 125.52 19.72C124.904 20.5413 124.596 21.6893 124.596 23.164V23.528C124.596 25.0587 124.97 26.2067 125.716 26.972C126.482 27.7187 127.555 28.092 128.936 28.092C129.739 28.092 130.486 27.9893 131.176 27.784C131.886 27.56 132.558 27.2053 133.192 26.72L134.228 29.072C133.556 29.6133 132.754 30.0333 131.82 30.332C130.887 30.6307 129.898 30.78 128.852 30.78ZM136.968 30.5V26.608H140.888V30.5H136.968ZM149.683 30.78C148.451 30.78 147.369 30.4907 146.435 29.912C145.502 29.3147 144.774 28.4653 144.251 27.364C143.729 26.2627 143.467 24.9467 143.467 23.416C143.467 21.8853 143.729 20.5787 144.251 19.496C144.774 18.3947 145.502 17.5547 146.435 16.976C147.369 16.3787 148.451 16.08 149.683 16.08C150.878 16.08 151.923 16.3787 152.819 16.976C153.734 17.5547 154.341 18.3387 154.639 19.328H154.331L154.639 16.36H157.999C157.943 16.9387 157.887 17.5267 157.831 18.124C157.794 18.7213 157.775 19.3093 157.775 19.888V30.5H154.303L154.275 27.588H154.611C154.313 28.5587 153.706 29.3333 152.791 29.912C151.877 30.4907 150.841 30.78 149.683 30.78ZM150.663 28.092C151.765 28.092 152.651 27.7093 153.323 26.944C153.995 26.16 154.331 24.984 154.331 23.416C154.331 21.848 153.995 20.6813 153.323 19.916C152.651 19.1507 151.765 18.768 150.663 18.768C149.562 18.768 148.675 19.1507 148.003 19.916C147.331 20.6813 146.995 21.848 146.995 23.416C146.995 24.984 147.322 26.16 147.975 26.944C148.647 27.7093 149.543 28.092 150.663 28.092ZM161.587 30.5V16.36H165.087V30.5H161.587ZM161.391 13.7V10.284H165.283V13.7H161.391Z" fill="white"/>
</svg>
